<?xml version='1.0' encoding='utf-8'?>
<svg xmlns="http://www.w3.org/2000/svg" width="1600" height="1100" viewBox="0 0 1600 1100" style="font-family: 'Microsoft YaHei', 'PingFang SC', sans-serif;"><defs><marker id="arrow" viewBox="0 0 10 10" refX="10" refY="5" markerWidth="6" markerHeight="6" orient="auto"><path d="M0,0 L10,5 L0,10 Z" fill="#888" /></marker><filter id="shadow" x="-5%" y="-5%" width="115%" height="115%"><feDropShadow dx="2" dy="2" stdDeviation="2" flood-opacity="0.12" /></filter></defs><rect width="1600" height="1100" fill="#f8f9fa" /><path d="M222,40 L1378,40 Q1390,40 1390,52 L1390,828 Q1390,840 1378,840 L222,840 Q210,840 210,828 L210,52 Q210,40 222,40 Z" fill="#ffffff" stroke="#333" stroke-width="2" stroke-dasharray="8 4" /><text x="800" y="68" text-anchor="middle" fill="#333" font-size="18" font-weight="bold">《亭城GIS系统》</text><path d="M246,70 L574,70 Q580,70 580,76 L580,224 Q580,230 574,230 L246,230 Q240,230 240,224 L240,76 Q240,70 246,70 Z" fill="#f5f7fa" stroke="#999" stroke-width="1" stroke-dasharray="4 3" /><text x="410" y="92" text-anchor="middle" fill="#555" font-size="13" font-weight="bold">用户认证</text><path d="M626,70 L954,70 Q960,70 960,76 L960,224 Q960,230 954,230 L626,230 Q620,230 620,224 L620,76 Q620,70 626,70 Z" fill="#f5f7fa" stroke="#999" stroke-width="1" stroke-dasharray="4 3" /><text x="790" y="92" text-anchor="middle" fill="#555" font-size="13" font-weight="bold">亭子信息管理</text><path d="M1006,70 L1354,70 Q1360,70 1360,76 L1360,264 Q1360,270 1354,270 L1006,270 Q1000,270 1000,264 L1000,76 Q1000,70 1006,70 Z" fill="#f5f7fa" stroke="#999" stroke-width="1" stroke-dasharray="4 3" /><text x="1180" y="92" text-anchor="middle" fill="#555" font-size="13" font-weight="bold">地图与空间分析</text><path d="M246,310 L574,310 Q580,310 580,316 L580,504 Q580,510 574,510 L246,510 Q240,510 240,504 L240,316 Q240,310 246,310 Z" fill="#f5f7fa" stroke="#999" stroke-width="1" stroke-dasharray="4 3" /><text x="410" y="332" text-anchor="middle" fill="#555" font-size="13" font-weight="bold">路线与导航</text><path d="M626,310 L954,310 Q960,310 960,316 L960,504 Q960,510 954,510 L626,510 Q620,510 620,504 L620,316 Q620,310 626,310 Z" fill="#f5f7fa" stroke="#999" stroke-width="1" stroke-dasharray="4 3" /><text x="790" y="332" text-anchor="middle" fill="#555" font-size="13" font-weight="bold">数据管理</text><path d="M1006,310 L1354,310 Q1360,310 1360,316 L1360,504 Q1360,510 1354,510 L1006,510 Q1000,510 1000,504 L1000,316 Q1000,310 1006,310 Z" fill="#f5f7fa" stroke="#999" stroke-width="1" stroke-dasharray="4 3" /><text x="1180" y="332" text-anchor="middle" fill="#555" font-size="13" font-weight="bold">AI与多媒体</text><path d="M246,590 L574,590 Q580,590 580,596 L580,784 Q580,790 574,790 L246,790 Q240,790 240,784 L240,596 Q240,590 246,590 Z" fill="#f5f7fa" stroke="#999" stroke-width="1" stroke-dasharray="4 3" /><text x="410" y="612" text-anchor="middle" fill="#555" font-size="13" font-weight="bold">社交辅助</text><path d="M626,590 L954,590 Q960,590 960,596 L960,704 Q960,710 954,710 L626,710 Q620,710 620,704 L620,596 Q620,590 626,590 Z" fill="#f5f7fa" stroke="#999" stroke-width="1" stroke-dasharray="4 3" /><text x="790" y="612" text-anchor="middle" fill="#555" font-size="13" font-weight="bold">统计与报表</text><path d="M378,102 L443,102 Q447,102 447,106 L447,126 Q447,130 443,130 L378,130 Q374,130 374,126 L374,106 Q374,102 378,102 Z" fill="#fff" stroke="#2e7d32" stroke-width="1.5" /><text x="410" y="119" text-anchor="middle" fill="#333" font-size="11">注册账号</text><path d="M378,136 L443,136 Q447,136 447,140 L447,160 Q447,164 443,164 L378,164 Q374,164 374,160 L374,140 Q374,136 378,136 Z" fill="#fff" stroke="#2196f3" stroke-width="1.5" /><text x="410" y="153" text-anchor="middle" fill="#333" font-size="11">登录系统</text><path d="M378,170 L443,170 Q447,170 447,174 L447,194 Q447,198 443,198 L378,198 Q374,198 374,194 L374,174 Q374,170 378,170 Z" fill="#fff" stroke="#2e7d32" stroke-width="1.5" /><text x="410" y="187" text-anchor="middle" fill="#333" font-size="11">修改密码</text><path d="M758,102 L823,102 Q827,102 827,106 L827,126 Q827,130 823,130 L758,130 Q754,130 754,126 L754,106 Q754,102 758,102 Z" fill="#fff" stroke="#2196f3" stroke-width="1.5" /><text x="790" y="119" text-anchor="middle" fill="#333" font-size="11">查询亭子</text><path d="M758,136 L823,136 Q827,136 827,140 L827,160 Q827,164 823,164 L758,164 Q754,164 754,160 L754,140 Q754,136 758,136 Z" fill="#fff" stroke="#e65100" stroke-width="1.5" /><text x="790" y="153" text-anchor="middle" fill="#333" font-size="11">创建亭子</text><path d="M758,170 L823,170 Q827,170 827,174 L827,194 Q827,198 823,198 L758,198 Q754,198 754,194 L754,174 Q754,170 758,170 Z" fill="#fff" stroke="#e65100" stroke-width="1.5" /><text x="790" y="187" text-anchor="middle" fill="#333" font-size="11">编辑亭子</text><path d="M758,204 L823,204 Q827,204 827,208 L827,228 Q827,232 823,232 L758,232 Q754,232 754,228 L754,208 Q754,204 758,204 Z" fill="#fff" stroke="#e65100" stroke-width="1.5" /><text x="790" y="221" text-anchor="middle" fill="#333" font-size="11">删除亭子</text><path d="M1130,102 L1230,102 Q1234,102 1234,106 L1234,126 Q1234,130 1230,130 L1130,130 Q1126,130 1126,126 L1126,106 Q1126,102 1130,102 Z" fill="#fff" stroke="#1565c0" stroke-width="1.5" /><text x="1180" y="119" text-anchor="middle" fill="#333" font-size="11">2D/3D地图浏览</text><path d="M1141,136 L1220,136 Q1224,136 1224,140 L1224,160 Q1224,164 1220,164 L1141,164 Q1137,164 1137,160 L1137,140 Q1137,136 1141,136 Z" fill="#fff" stroke="#1565c0" stroke-width="1.5" /><text x="1180" y="153" text-anchor="middle" fill="#333" font-size="11">亭子标注定位</text><path d="M1148,170 L1213,170 Q1217,170 1217,174 L1217,194 Q1217,198 1213,198 L1148,198 Q1144,198 1144,194 L1144,174 Q1144,170 1148,170 Z" fill="#fff" stroke="#6a1b9a" stroke-width="1.5" /><text x="1180" y="187" text-anchor="middle" fill="#333" font-size="11">距离计算</text><path d="M1134,204 L1227,204 Q1231,204 1231,208 L1231,228 Q1231,232 1227,232 L1134,232 Q1130,232 1130,228 L1130,208 Q1130,204 1134,204 Z" fill="#fff" stroke="#6a1b9a" stroke-width="1.5" /><text x="1180" y="221" text-anchor="middle" fill="#333" font-size="11">最近/缓冲区查询</text><path d="M1134,238 L1227,238 Q1231,238 1231,242 L1231,262 Q1231,266 1227,266 L1134,266 Q1130,266 1130,262 L1130,242 Q1130,238 1134,238 Z" fill="#fff" stroke="#6a1b9a" stroke-width="1.5" /><text x="1180" y="255" text-anchor="middle" fill="#333" font-size="11">热力图/密度分析</text><path d="M371,342 L450,342 Q454,342 454,346 L454,366 Q454,370 450,370 L371,370 Q367,370 367,366 L367,346 Q367,342 371,342 Z" fill="#fff" stroke="#2196f3" stroke-width="1.5" /><text x="410" y="359" text-anchor="middle" fill="#333" font-size="11">两亭路线查询</text><path d="M367,376 L453,376 Q457,376 457,380 L457,400 Q457,404 453,404 L367,404 Q363,404 363,400 L363,380 Q363,376 367,376 Z" fill="#fff" stroke="#2e7d32" stroke-width="1.5" /><text x="410" y="393" text-anchor="middle" fill="#333" font-size="11">TSP最优路径</text><path d="M378,410 L443,410 Q447,410 447,414 L447,434 Q447,438 443,438 L378,438 Q374,438 374,434 L374,414 Q374,410 378,410 Z" fill="#fff" stroke="#2e7d32" stroke-width="1.5" /><text x="410" y="427" text-anchor="middle" fill="#333" font-size="11">逐向导航</text><path d="M371,444 L450,444 Q454,444 454,448 L454,468 Q454,472 450,472 L371,472 Q367,472 367,468 L367,448 Q367,444 371,444 Z" fill="#fff" stroke="#2e7d32" stroke-width="1.5" /><text x="410" y="461" text-anchor="middle" fill="#333" font-size="11">智能游览规划</text><path d="M712,342 L868,342 Q872,342 872,346 L872,366 Q872,370 868,370 L712,370 Q708,370 708,366 L708,346 Q708,342 712,342 Z" fill="#fff" stroke="#e65100" stroke-width="1.5" /><text x="790" y="359" text-anchor="middle" fill="#333" font-size="11">导入(Excel/GeoJSON)</text><path d="M712,376 L868,376 Q872,376 872,380 L872,400 Q872,404 868,404 L712,404 Q708,404 708,400 L708,380 Q708,376 712,376 Z" fill="#fff" stroke="#e65100" stroke-width="1.5" /><text x="790" y="393" text-anchor="middle" fill="#333" font-size="11">导出(Excel/GeoJSON)</text><path d="M751,410 L830,410 Q834,410 834,414 L834,434 Q834,438 830,438 L751,438 Q747,438 747,434 L747,414 Q747,410 751,410 Z" fill="#fff" stroke="#e65100" stroke-width="1.5" /><text x="790" y="427" text-anchor="middle" fill="#333" font-size="11">批量坐标纠正</text><path d="M747,444 L833,444 Q837,444 837,448 L837,468 Q837,472 833,472 L747,472 Q743,472 743,468 L743,448 Q743,444 747,444 Z" fill="#fff" stroke="#e65100" stroke-width="1.5" /><text x="790" y="461" text-anchor="middle" fill="#333" font-size="11">OSM数据导入</text><path d="M1141,342 L1220,342 Q1224,342 1224,346 L1224,366 Q1224,370 1220,370 L1141,370 Q1137,370 1137,366 L1137,346 Q1137,342 1141,342 Z" fill="#fff" stroke="#1565c0" stroke-width="1.5" /><text x="1180" y="359" text-anchor="middle" fill="#333" font-size="11">AI文化讲解</text><path d="M1141,376 L1220,376 Q1224,376 1224,380 L1224,400 Q1224,404 1220,404 L1141,404 Q1137,404 1137,400 L1137,380 Q1137,376 1141,376 Z" fill="#fff" stroke="#2e7d32" stroke-width="1.5" /><text x="1180" y="393" text-anchor="middle" fill="#333" font-size="11">AI游览建议</text><path d="M1137,410 L1223,410 Q1227,410 1227,414 L1227,434 Q1227,438 1223,438 L1137,438 Q1133,438 1133,434 L1133,414 Q1133,410 1137,410 Z" fill="#fff" stroke="#1565c0" stroke-width="1.5" /><text x="1180" y="427" text-anchor="middle" fill="#333" font-size="11">VR/AR体验</text><path d="M1137,444 L1223,444 Q1227,444 1227,448 L1227,468 Q1227,472 1223,472 L1137,472 Q1133,472 1133,468 L1133,448 Q1133,444 1137,444 Z" fill="#fff" stroke="#2e7d32" stroke-width="1.5" /><text x="1180" y="461" text-anchor="middle" fill="#333" font-size="11">图片/语音上传</text><path d="M378,622 L443,622 Q447,622 447,626 L447,646 Q447,650 443,650 L378,650 Q374,650 374,646 L374,626 Q374,622 378,622 Z" fill="#fff" stroke="#2e7d32" stroke-width="1.5" /><text x="410" y="639" text-anchor="middle" fill="#333" font-size="11">收藏亭子</text><path d="M378,656 L443,656 Q447,656 447,660 L447,680 Q447,684 443,684 L378,684 Q374,684 374,680 L374,660 Q374,656 378,656 Z" fill="#fff" stroke="#2e7d32" stroke-width="1.5" /><text x="410" y="673" text-anchor="middle" fill="#333" font-size="11">游览日志</text><path d="M378,690 L443,690 Q447,690 447,694 L447,714 Q447,718 443,718 L378,718 Q374,718 374,714 L374,694 Q374,690 378,690 Z" fill="#fff" stroke="#2e7d32" stroke-width="1.5" /><text x="410" y="707" text-anchor="middle" fill="#333" font-size="11">分享路线</text><path d="M371,724 L450,724 Q454,724 454,728 L454,748 Q454,752 450,752 L371,752 Q367,752 367,748 L367,728 Q367,724 371,724 Z" fill="#fff" stroke="#2e7d32" stroke-width="1.5" /><text x="410" y="741" text-anchor="middle" fill="#333" font-size="11">附近设施查询</text><path d="M758,622 L823,622 Q827,622 827,626 L827,646 Q827,650 823,650 L758,650 Q754,650 754,646 L754,626 Q754,622 758,622 Z" fill="#fff" stroke="#6a1b9a" stroke-width="1.5" /><text x="790" y="639" text-anchor="middle" fill="#333" font-size="11">访问统计</text><path d="M758,656 L823,656 Q827,656 827,660 L827,680 Q827,684 823,684 L758,684 Q754,684 754,680 L754,660 Q754,656 758,656 Z" fill="#fff" stroke="#6a1b9a" stroke-width="1.5" /><text x="790" y="673" text-anchor="middle" fill="#333" font-size="11">数据报表</text><circle cx="60" cy="200" r="22" fill="#1565c0" stroke="#fff" stroke-width="2" filter="url(#shadow)" /><text x="60" y="238" text-anchor="middle" fill="#1565c0" font-size="12" font-weight="bold">游客</text><circle cx="60" cy="420" r="22" fill="#2e7d32" stroke="#fff" stroke-width="2" filter="url(#shadow)" /><text x="60" y="458" text-anchor="middle" fill="#2e7d32" font-size="12" font-weight="bold">注册用户</text><circle cx="60" cy="640" r="22" fill="#e65100" stroke="#fff" stroke-width="2" filter="url(#shadow)" /><text x="60" y="678" text-anchor="middle" fill="#e65100" font-size="12" font-weight="bold">管理员</text><circle cx="60" cy="860" r="22" fill="#6a1b9a" stroke="#fff" stroke-width="2" filter="url(#shadow)" /><text x="60" y="898" text-anchor="middle" fill="#6a1b9a" font-size="12" font-weight="bold">数据分析员</text><path d="M82,200 C145.2,185.0 192.6,165.0 240,150" fill="none" stroke="#1565c0" stroke-width="1.5" stroke-opacity="0.35" stroke-linecap="round" /><path d="M82,200 C297.20000000000005,185.0 458.59999999999997,165.0 620,150" fill="none" stroke="#1565c0" stroke-width="1.5" stroke-opacity="0.35" stroke-linecap="round" /><path d="M82,200 C449.20000000000005,191.0 724.5999999999999,179.0 1000,170" fill="none" stroke="#1565c0" stroke-width="1.5" stroke-opacity="0.35" stroke-linecap="round" /><path d="M82,200 C145.2,263.0 192.6,347.0 240,410" fill="none" stroke="#1565c0" stroke-width="1.5" stroke-opacity="0.35" stroke-linecap="round" /><path d="M82,200 C449.20000000000005,263.0 724.5999999999999,347.0 1000,410" fill="none" stroke="#1565c0" stroke-width="1.5" stroke-opacity="0.35" stroke-linecap="round" /><path d="M82,420 C145.2,339.0 192.6,231.0 240,150" fill="none" stroke="#2e7d32" stroke-width="1.5" stroke-opacity="0.35" stroke-linecap="round" /><path d="M82,420 C297.20000000000005,339.0 458.59999999999997,231.0 620,150" fill="none" stroke="#2e7d32" stroke-width="1.5" stroke-opacity="0.35" stroke-linecap="round" /><path d="M82,420 C145.2,417.0 192.6,413.0 240,410" fill="none" stroke="#2e7d32" stroke-width="1.5" stroke-opacity="0.35" stroke-linecap="round" /><path d="M82,420 C449.20000000000005,417.0 724.5999999999999,413.0 1000,410" fill="none" stroke="#2e7d32" stroke-width="1.5" stroke-opacity="0.35" stroke-linecap="round" /><path d="M82,420 C145.2,501.0 192.6,609.0 240,690" fill="none" stroke="#2e7d32" stroke-width="1.5" stroke-opacity="0.35" stroke-linecap="round" /><path d="M82,640 C297.20000000000005,493.0 458.59999999999997,297.0 620,150" fill="none" stroke="#e65100" stroke-width="1.5" stroke-opacity="0.35" stroke-linecap="round" /><path d="M82,640 C297.20000000000005,571.0 458.59999999999997,479.0 620,410" fill="none" stroke="#e65100" stroke-width="1.5" stroke-opacity="0.35" stroke-linecap="round" /><path d="M82,860 C449.20000000000005,653.0 724.5999999999999,377.00000000000006 1000,170" fill="none" stroke="#6a1b9a" stroke-width="1.5" stroke-opacity="0.35" stroke-linecap="round" /><path d="M82,860 C297.20000000000005,797.0 458.59999999999997,713.0 620,650" fill="none" stroke="#6a1b9a" stroke-width="1.5" stroke-opacity="0.35" stroke-linecap="round" /><text x="630" y="840" fill="#333" font-size="12" font-weight="bold">图例:</text><circle cx="680" cy="837" r="6" fill="#1565c0" stroke="#fff" stroke-width="1" /><text x="690" y="841" fill="#333" font-size="11">= 游客</text><circle cx="810" cy="837" r="6" fill="#2e7d32" stroke="#fff" stroke-width="1" /><text x="820" y="841" fill="#333" font-size="11">= 注册用户</text><circle cx="940" cy="837" r="6" fill="#e65100" stroke="#fff" stroke-width="1" /><text x="950" y="841" fill="#333" font-size="11">= 管理员</text><circle cx="1070" cy="837" r="6" fill="#6a1b9a" stroke="#fff" stroke-width="1" /><text x="1080" y="841" fill="#333" font-size="11">= 数据分析员</text></svg>