<svg xmlns="http://www.w3.org/2000/svg" width="640" height="360" viewBox="0 0 640 360">
  <defs>
    <linearGradient id="sky" x1="0" y1="0" x2="0" y2="1">
      <stop offset="0%" stop-color="#5dade2"/>
      <stop offset="100%" stop-color="#d6eaf8"/>
    </linearGradient>
  </defs>
  <rect width="640" height="360" fill="url(#sky)"/>
  <ellipse cx="320" cy="310" rx="280" ry="38" fill="#82c082" opacity="0.5"/>
  <rect x="120" y="240" width="35" height="50" fill="#27ae60" rx="17" opacity="0.35"/>
  <rect x="200" y="235" width="30" height="55" fill="#2ecc71" rx="15" opacity="0.35"/>
  <rect x="410" y="238" width="40" height="52" fill="#27ae60" rx="20" opacity="0.35"/>
  <rect x="485" y="242" width="32" height="48" fill="#2ecc71" rx="16" opacity="0.35"/>
  <rect x="265" y="200" width="110" height="60" fill="#2980b9" rx="3"/>
  <rect x="258" y="250" width="124" height="12" fill="#1f618d"/>
  <rect x="302" y="215" width="36" height="45" fill="#1a5276" rx="3"/>
  <polygon points="235,200 320,125 405,200" fill="#1a5276"/>
  <polygon points="245,200 320,135 395,200" fill="#21618c"/>
  <text x="320" y="50" text-anchor="middle" font-family="Microsoft YaHei, SimHei, sans-serif" font-size="24" fill="#2c3e50">城市公园亭 - 市民休憩</text>
</svg>
