<svg xmlns="http://www.w3.org/2000/svg" width="640" height="360" viewBox="0 0 640 360">
  <defs>
    <linearGradient id="sky" x1="0" y1="0" x2="0" y2="1">
      <stop offset="0%" stop-color="#d7bde2"/>
      <stop offset="100%" stop-color="#f5eef8"/>
    </linearGradient>
  </defs>
  <rect width="640" height="360" fill="url(#sky)"/>
  <ellipse cx="320" cy="310" rx="265" ry="35" fill="#7cb87c" opacity="0.45"/>
  <rect x="260" y="185" width="120" height="72" fill="#8e44ad" rx="3"/>
  <rect x="253" y="248" width="134" height="14" fill="#6c3483"/>
  <rect x="275" y="195" width="7" height="60" fill="#5b2c6f"/>
  <rect x="358" y="195" width="7" height="60" fill="#5b2c6f"/>
  <polygon points="232,185 320,105 408,185" fill="#6c3483"/>
  <polygon points="242,185 320,115 398,185" fill="#7d3c98"/>
  <polygon points="232,185 210,172 242,180" fill="#6c3483"/>
  <polygon points="408,185 430,172 398,180" fill="#6c3483"/>
  <rect x="300" y="220" width="40" height="40" fill="#5b2c6f" rx="2"/>
  <text x="320" y="50" text-anchor="middle" font-family="Microsoft YaHei, SimHei, sans-serif" font-size="24" fill="#2c3e50">欧阳修纪念亭 - 文宗遗韵</text>
</svg>
