<svg xmlns="http://www.w3.org/2000/svg" width="640" height="360" viewBox="0 0 640 360">
  <defs>
    <linearGradient id="sky" x1="0" y1="0" x2="0" y2="1">
      <stop offset="0%" stop-color="#f4d03f"/>
      <stop offset="100%" stop-color="#fdebd0"/>
    </linearGradient>
  </defs>
  <rect width="640" height="360" fill="url(#sky)"/>
  <ellipse cx="320" cy="310" rx="280" ry="35" fill="#7cb87c" opacity="0.4"/>
  <ellipse cx="150" cy="240" rx="50" ry="70" fill="#228b22" opacity="0.5"/>
  <ellipse cx="500" cy="235" rx="45" ry="65" fill="#2ecc71" opacity="0.5"/>
  <rect x="275" y="200" width="90" height="60" fill="#b03a2e" rx="2"/>
  <rect x="268" y="250" width="104" height="12" fill="#8b6914"/>
  <rect x="305" y="215" width="30" height="45" fill="#6b2f2a" rx="2"/>
  <polygon points="248,200 320,125 392,200" fill="#7b241c"/>
  <polygon points="258,200 320,135 382,200" fill="#922b21"/>
  <polygon points="248,200 225,186 255,195" fill="#7b241c"/>
  <polygon points="392,200 415,186 385,195" fill="#7b241c"/>
  <text x="320" y="50" text-anchor="middle" font-family="Microsoft YaHei, SimHei, sans-serif" font-size="24" fill="#4a235a">醉翁亭 - 琅琊山麓</text>
</svg>
